<?xml version="1.0" encoding="utf-8"?>
<!-- Generator: Adobe Illustrator 16.0.0, SVG Export Plug-In . SVG Version: 6.00 Build 0)  -->
<!DOCTYPE svg PUBLIC "-//W3C//DTD SVG 1.1//EN" "http://www.w3.org/Graphics/SVG/1.1/DTD/svg11.dtd">
<svg version="1.1" xmlns="http://www.w3.org/2000/svg" xmlns:xlink="http://www.w3.org/1999/xlink" x="0px" y="0px"
	 width="331.979px" height="76.142px" viewBox="0 0 331.979 76.142" enable-background="new 0 0 331.979 76.142"
	 xml:space="preserve">
<g id="Layer_1" display="none">
</g>
<g id="Layer_2">
	<g>
		<path d="M47.35,2.688v9.176H31.846v42.644H20.947V11.863H5.373V2.688H47.35z"/>
		<path d="M77.626,49.82c-3.234,3.992-8.145,5.988-14.73,5.988c-6.586,0-11.496-1.996-14.73-5.988s-4.852-8.799-4.852-14.419
			c0-5.526,1.617-10.315,4.852-14.366s8.144-6.077,14.73-6.077c6.586,0,11.496,2.026,14.73,6.077s4.852,8.84,4.852,14.366
			C82.478,41.021,80.86,45.828,77.626,49.82z M69.61,44.283c1.57-2.083,2.355-5.043,2.355-8.882c0-3.838-0.786-6.793-2.355-8.864
			c-1.57-2.071-3.82-3.107-6.75-3.107c-2.93,0-5.186,1.036-6.768,3.107S53.72,31.562,53.72,35.4c0,3.839,0.791,6.799,2.373,8.882
			c1.582,2.082,3.837,3.123,6.768,3.123C65.79,47.406,68.04,46.365,69.61,44.283z"/>
		<path d="M122.369,20.793c2.866,3.633,4.3,8.32,4.3,14.062c0,5.954-1.414,10.886-4.24,14.8c-2.827,3.915-6.773,5.871-11.838,5.871
			c-3.18,0-5.736-0.633-7.668-1.898c-1.154-0.75-2.403-2.062-3.746-3.938v4.816h-9.879V2.758h10.02V21.18
			c1.273-1.781,2.677-3.141,4.21-4.078c1.816-1.172,4.128-1.758,6.935-1.758C115.534,15.344,119.503,17.16,122.369,20.793z
			 M113.994,44.136c1.441-2.085,2.163-4.828,2.163-8.226c0-2.719-0.354-4.969-1.063-6.75c-1.347-3.375-3.828-5.062-7.444-5.062
			c-3.663,0-6.18,1.652-7.55,4.957c-0.709,1.758-1.063,4.031-1.063,6.82c0,3.282,0.732,6,2.198,8.156
			c1.465,2.157,3.698,3.234,6.7,3.234C110.533,47.265,112.553,46.223,113.994,44.136z"/>
		<path d="M135.142,61.855l1.266,0.07c0.984,0.047,1.922,0.012,2.812-0.105s1.641-0.387,2.25-0.809
			c0.586-0.398,1.131-1.23,1.635-2.496s0.721-2.039,0.651-2.32l-14.081-40.007h11.145l8.367,28.265l7.91-28.265h10.652
			l-13.138,37.687c-2.539,7.266-4.547,11.771-6.025,13.518c-1.478,1.746-4.435,2.619-8.869,2.619c-0.892,0-1.607-0.006-2.146-0.018
			c-0.54-0.012-1.35-0.053-2.429-0.123V61.855z"/>
		<path d="M194.485,2.758h36.949v9.105h-26.191v11.918H228.2v9h-22.957v21.726h-10.758V2.758z"/>
		<path d="M259.028,16.964c2.673,1.197,4.881,3.087,6.622,5.669c1.569,2.277,2.587,4.917,3.053,7.922
			c0.271,1.761,0.38,4.296,0.331,7.605h-27.91c0.155,3.844,1.491,6.539,4.007,8.085c1.531,0.962,3.372,1.441,5.524,1.441
			c2.283,0,4.138-0.585,5.564-1.758c0.777-0.633,1.465-1.512,2.062-2.637h10.229c-0.27,2.273-1.508,4.583-3.715,6.926
			c-3.433,3.727-8.237,5.59-14.416,5.59c-5.101,0-9.6-1.571-13.498-4.715c-3.898-3.143-5.848-8.257-5.848-15.341
			c0-6.638,1.76-11.729,5.279-15.271c3.519-3.542,8.087-5.313,13.703-5.313C253.352,15.168,256.355,15.767,259.028,16.964z
			 M244.039,25.619c-1.416,1.459-2.306,3.437-2.669,5.932h17.262c-0.183-2.66-1.071-4.678-2.669-6.055
			c-1.598-1.377-3.578-2.066-5.942-2.066C247.448,23.43,245.455,24.16,244.039,25.619z"/>
		<path d="M299.071,16.964c2.673,1.197,4.881,3.087,6.622,5.669c1.569,2.277,2.587,4.917,3.053,7.922
			c0.271,1.761,0.38,4.296,0.331,7.605h-27.91c0.155,3.844,1.491,6.539,4.007,8.085c1.531,0.962,3.372,1.441,5.524,1.441
			c2.283,0,4.138-0.585,5.564-1.758c0.777-0.633,1.465-1.512,2.062-2.637h10.229c-0.27,2.273-1.508,4.583-3.715,6.926
			c-3.433,3.727-8.237,5.59-14.416,5.59c-5.101,0-9.6-1.571-13.498-4.715c-3.898-3.143-5.848-8.257-5.848-15.341
			c0-6.638,1.76-11.729,5.279-15.271c3.519-3.542,8.087-5.313,13.703-5.313C293.395,15.168,296.398,15.767,299.071,16.964z
			 M284.082,25.619c-1.416,1.459-2.306,3.437-2.669,5.932h17.262c-0.183-2.66-1.071-4.678-2.669-6.055
			c-1.598-1.377-3.578-2.066-5.942-2.066C287.491,23.43,285.498,24.16,284.082,25.619z"/>
	</g>
	<g>
		<path d="M160.235,58.472c0.431-0.629,1.262-0.943,2.492-0.943c0.115,0,0.235,0.003,0.358,0.01s0.263,0.018,0.421,0.031v1.682
			c-0.194-0.014-0.334-0.022-0.421-0.025c-0.086-0.004-0.167-0.006-0.243-0.006c-0.566,0-0.905,0.146-1.017,0.436
			c-0.11,0.291-0.165,1.031-0.165,2.221h1.846v1.455h-1.846v9.475h-1.826v-9.475h-1.527v-1.455h1.527v-1.723
			C159.862,59.388,159.996,58.828,160.235,58.472z"/>
		<path d="M164.734,61.825h1.754v1.897c0.144-0.369,0.495-0.818,1.057-1.35c0.56-0.529,1.206-0.794,1.938-0.794
			c0.034,0,0.092,0.003,0.174,0.011c0.082,0.006,0.223,0.02,0.421,0.041v1.947c-0.109-0.02-0.21-0.033-0.303-0.041
			c-0.092-0.006-0.193-0.01-0.302-0.01c-0.931,0-1.645,0.299-2.144,0.896c-0.499,0.6-0.749,1.287-0.749,2.066v6.316h-1.846V61.825z"
			/>
		<path d="M179.108,62.921c0.971,0.941,1.456,2.328,1.456,4.158c0,1.77-0.428,3.23-1.283,4.385s-2.183,1.732-3.98,1.732
			c-1.501,0-2.692-0.511-3.574-1.532c-0.883-1.021-1.323-2.392-1.323-4.113c0-1.845,0.465-3.312,1.395-4.405
			s2.179-1.639,3.747-1.639C176.95,61.507,178.138,61.978,179.108,62.921z M177.962,70.219c0.45-0.925,0.675-1.954,0.675-3.088
			c0-1.024-0.162-1.856-0.486-2.499c-0.514-1.01-1.399-1.516-2.657-1.516c-1.115,0-1.926,0.43-2.433,1.291
			c-0.507,0.859-0.761,1.897-0.761,3.113c0,1.168,0.254,2.141,0.761,2.918c0.507,0.779,1.311,1.168,2.413,1.168
			C176.684,71.607,177.513,71.144,177.962,70.219z"/>
		<path d="M182.306,61.825h1.754v1.559c0.519-0.643,1.069-1.104,1.65-1.384c0.581-0.281,1.227-0.421,1.938-0.421
			c1.559,0,2.611,0.544,3.158,1.63c0.301,0.596,0.451,1.446,0.451,2.554v7.044h-1.876v-6.921c0-0.67-0.1-1.21-0.298-1.62
			c-0.328-0.684-0.922-1.025-1.783-1.025c-0.438,0-0.797,0.045-1.077,0.133c-0.506,0.15-0.95,0.451-1.333,0.902
			c-0.308,0.363-0.508,0.737-0.6,1.123c-0.093,0.387-0.139,0.938-0.139,1.656v5.752h-1.846V61.825z"/>
		<path d="M193.829,58.759h1.866v3.065h1.753v1.507h-1.753V70.5c0,0.383,0.13,0.639,0.39,0.77c0.144,0.074,0.383,0.112,0.718,0.112
			c0.089,0,0.185-0.003,0.287-0.007s0.222-0.016,0.358-0.034v1.466c-0.212,0.062-0.432,0.106-0.661,0.134
			c-0.229,0.027-0.477,0.041-0.743,0.041c-0.861,0-1.445-0.22-1.754-0.661c-0.307-0.441-0.461-1.014-0.461-1.718v-7.271h-1.486
			v-1.507h1.486V58.759z"/>
		<path d="M205.553,62.126c0.727,0.367,1.28,0.84,1.661,1.421c0.367,0.554,0.611,1.2,0.733,1.938
			c0.109,0.506,0.164,1.312,0.164,2.42h-7.988c0.034,1.117,0.295,2.014,0.783,2.688s1.245,1.013,2.269,1.013
			c0.957,0,1.72-0.319,2.29-0.958c0.318-0.37,0.544-0.8,0.678-1.288h1.814c-0.048,0.404-0.207,0.854-0.477,1.35
			c-0.271,0.495-0.571,0.9-0.904,1.215c-0.556,0.547-1.244,0.916-2.065,1.107c-0.441,0.109-0.939,0.164-1.496,0.164
			c-1.358,0-2.51-0.498-3.454-1.492s-1.416-2.388-1.416-4.179c0-1.764,0.475-3.196,1.426-4.296c0.951-1.102,2.194-1.651,3.73-1.651
			C204.075,61.579,204.826,61.761,205.553,62.126z M206.214,66.439c-0.074-0.8-0.247-1.439-0.519-1.918
			c-0.502-0.889-1.339-1.332-2.512-1.332c-0.84,0-1.545,0.306-2.114,0.918c-0.569,0.611-0.871,1.389-0.905,2.332H206.214z"/>
		<path d="M209.924,61.825h1.754v1.559c0.519-0.643,1.069-1.104,1.65-1.384c0.581-0.281,1.227-0.421,1.938-0.421
			c1.559,0,2.611,0.544,3.158,1.63c0.301,0.596,0.451,1.446,0.451,2.554v7.044h-1.876v-6.921c0-0.67-0.1-1.21-0.298-1.62
			c-0.328-0.684-0.922-1.025-1.783-1.025c-0.438,0-0.797,0.045-1.077,0.133c-0.506,0.15-0.95,0.451-1.333,0.902
			c-0.308,0.363-0.508,0.737-0.6,1.123c-0.093,0.387-0.139,0.938-0.139,1.656v5.752h-1.846V61.825z"/>
		<path d="M227.111,62.164c0.327,0.205,0.698,0.563,1.113,1.076v-5.547h1.774v15.113h-1.661v-1.527
			c-0.429,0.677-0.937,1.166-1.522,1.467c-0.585,0.301-1.256,0.451-2.012,0.451c-1.219,0-2.274-0.515-3.167-1.543
			c-0.892-1.029-1.338-2.398-1.338-4.107c0-1.6,0.407-2.985,1.221-4.158c0.813-1.172,1.977-1.758,3.488-1.758
			C225.846,61.63,226.547,61.808,227.111,62.164z M222.992,70.397c0.496,0.793,1.292,1.189,2.387,1.189
			c0.851,0,1.549-0.367,2.097-1.103c0.548-0.734,0.821-1.789,0.821-3.163c0-1.388-0.282-2.415-0.847-3.081s-1.262-1-2.092-1
			c-0.925,0-1.675,0.355-2.249,1.066c-0.575,0.711-0.862,1.757-0.862,3.138C222.247,68.62,222.495,69.604,222.992,70.397z"/>
		<path d="M237.118,62.583c-0.216-0.499-0.323-0.98-0.323-1.445c0-0.971,0.327-1.775,0.981-2.416
			c0.654-0.639,1.53-0.958,2.628-0.958c1.042,0,1.856,0.298,2.443,0.892c0.586,0.594,0.879,1.305,0.879,2.132
			c0,0.964-0.303,1.808-0.908,2.531c-0.354,0.424-0.946,0.912-1.776,1.466l2.735,3.284c0.182-0.546,0.308-0.954,0.378-1.226
			c0.071-0.27,0.144-0.646,0.218-1.133h1.753c-0.115,0.965-0.347,1.889-0.694,2.773c-0.347,0.887-0.52,1.242-0.52,1.07l2.669,3.252
			h-2.374l-1.409-1.723c-0.559,0.609-1.069,1.053-1.533,1.334c-0.811,0.492-1.743,0.738-2.799,0.738
			c-1.561,0-2.694-0.422-3.402-1.268c-0.709-0.844-1.063-1.795-1.063-2.855c0-1.141,0.345-2.095,1.033-2.86
			c0.423-0.465,1.21-1.046,2.361-1.743C237.759,63.698,237.333,63.083,237.118,62.583z M241.552,71.012
			c0.544-0.349,0.963-0.738,1.255-1.169l-3.392-4.152c-0.958,0.643-1.583,1.135-1.876,1.477c-0.448,0.512-0.672,1.138-0.672,1.876
			c0,0.8,0.29,1.415,0.872,1.846s1.203,0.646,1.863,0.646C240.357,71.535,241.007,71.361,241.552,71.012z M241.406,62.475
			c0.398-0.464,0.598-0.979,0.598-1.546c0-0.443-0.146-0.825-0.438-1.146c-0.292-0.32-0.687-0.48-1.182-0.48
			c-0.755,0-1.278,0.252-1.57,0.758c-0.149,0.259-0.224,0.542-0.224,0.85c0,0.416,0.114,0.814,0.344,1.197
			c0.229,0.381,0.611,0.876,1.146,1.483C240.721,63.133,241.163,62.761,241.406,62.475z"/>
		<path d="M252.112,58.472c0.431-0.629,1.262-0.943,2.492-0.943c0.115,0,0.235,0.003,0.358,0.01s0.263,0.018,0.421,0.031v1.682
			c-0.194-0.014-0.334-0.022-0.421-0.025c-0.086-0.004-0.167-0.006-0.243-0.006c-0.566,0-0.905,0.146-1.017,0.436
			c-0.11,0.291-0.165,1.031-0.165,2.221h1.846v1.455h-1.846v9.475h-1.826v-9.475h-1.527v-1.455h1.527v-1.723
			C251.739,59.388,251.873,58.828,252.112,58.472z"/>
		<path d="M258.406,61.825v7.29c0,0.561,0.087,1.02,0.26,1.375c0.319,0.656,0.915,0.984,1.787,0.984
			c1.252,0,2.104-0.574,2.557-1.723c0.246-0.615,0.369-1.46,0.369-2.533v-5.394h1.846v10.981h-1.742l0.02-1.619
			c-0.234,0.416-0.526,0.769-0.875,1.056c-0.691,0.574-1.529,0.861-2.516,0.861c-1.536,0-2.582-0.522-3.139-1.569
			c-0.302-0.561-0.453-1.309-0.453-2.245v-7.465H258.406z"/>
		<path d="M267.766,57.744h1.846v15.062h-1.846V57.744z"/>
		<path d="M271.906,57.744h1.846v15.062h-1.846V57.744z"/>
		<path d="M275.514,66.008h5.148v1.897h-5.148V66.008z"/>
		<path d="M283.562,69.361c0.056,0.615,0.212,1.088,0.471,1.416c0.474,0.594,1.298,0.892,2.47,0.892
			c0.697,0,1.312-0.149,1.842-0.446s0.796-0.757,0.796-1.379c0-0.472-0.213-0.83-0.637-1.076c-0.271-0.15-0.806-0.325-1.604-0.523
			l-1.49-0.369c-0.951-0.232-1.653-0.492-2.104-0.779c-0.806-0.499-1.209-1.189-1.209-2.071c0-1.039,0.379-1.88,1.138-2.522
			s1.778-0.964,3.061-0.964c1.677,0,2.886,0.485,3.626,1.456c0.465,0.615,0.689,1.278,0.676,1.989h-1.742
			c-0.035-0.415-0.186-0.792-0.452-1.132c-0.434-0.482-1.186-0.725-2.257-0.725c-0.714,0-1.254,0.133-1.621,0.398
			s-0.551,0.617-0.551,1.053c0,0.477,0.241,0.858,0.724,1.145c0.278,0.17,0.689,0.32,1.232,0.45l1.243,0.298
			c1.352,0.32,2.257,0.632,2.717,0.933c0.718,0.472,1.076,1.214,1.076,2.226c0,0.977-0.375,1.821-1.126,2.532
			s-1.895,1.066-3.431,1.066c-1.654,0-2.826-0.371-3.515-1.112c-0.688-0.742-1.057-1.66-1.105-2.754H283.562z"/>
		<path d="M292.808,58.759h1.866v3.065h1.753v1.507h-1.753V70.5c0,0.383,0.13,0.639,0.39,0.77c0.144,0.074,0.383,0.112,0.718,0.112
			c0.089,0,0.185-0.003,0.287-0.007s0.222-0.016,0.358-0.034v1.466c-0.212,0.062-0.432,0.106-0.661,0.134
			c-0.229,0.027-0.477,0.041-0.743,0.041c-0.861,0-1.445-0.22-1.754-0.661c-0.307-0.441-0.461-1.014-0.461-1.718v-7.271h-1.486
			v-1.507h1.486V58.759z"/>
		<path d="M303.634,66.161c0.424-0.055,0.708-0.231,0.852-0.532c0.081-0.165,0.122-0.401,0.122-0.711
			c0-0.631-0.223-1.089-0.67-1.373c-0.447-0.285-1.086-0.428-1.919-0.428c-0.962,0-1.644,0.262-2.046,0.783
			c-0.226,0.289-0.372,0.719-0.44,1.288h-1.723c0.034-1.357,0.473-2.302,1.316-2.833c0.843-0.531,1.821-0.797,2.934-0.797
			c1.291,0,2.339,0.246,3.145,0.738c0.799,0.492,1.198,1.258,1.198,2.297v6.327c0,0.191,0.039,0.345,0.118,0.462
			c0.078,0.115,0.244,0.174,0.497,0.174c0.082,0,0.174-0.006,0.277-0.016c0.102-0.01,0.211-0.025,0.328-0.047v1.364
			c-0.287,0.082-0.507,0.134-0.656,0.153c-0.151,0.021-0.356,0.031-0.615,0.031c-0.637,0-1.098-0.226-1.385-0.677
			c-0.15-0.239-0.256-0.577-0.318-1.015c-0.376,0.492-0.916,0.919-1.619,1.281c-0.705,0.362-1.48,0.543-2.328,0.543
			c-1.019,0-1.851-0.309-2.497-0.926c-0.646-0.618-0.969-1.392-0.969-2.32c0-1.018,0.317-1.806,0.954-2.365
			c0.635-0.561,1.469-0.904,2.502-1.035L303.634,66.161z M299.748,71.146c0.389,0.308,0.851,0.461,1.384,0.461
			c0.649,0,1.278-0.15,1.887-0.45c1.025-0.499,1.538-1.313,1.538-2.446v-1.485c-0.226,0.144-0.515,0.265-0.87,0.36
			c-0.354,0.096-0.702,0.164-1.044,0.205l-1.115,0.144c-0.668,0.089-1.171,0.229-1.508,0.419c-0.571,0.321-0.856,0.833-0.856,1.535
			C299.163,70.42,299.357,70.839,299.748,71.146z"/>
		<path d="M316.157,62.41c0.775,0.602,1.242,1.637,1.399,3.106h-1.795c-0.109-0.677-0.358-1.239-0.748-1.687
			s-1.016-0.672-1.877-0.672c-1.176,0-2.017,0.574-2.521,1.721c-0.328,0.744-0.492,1.662-0.492,2.755
			c0,1.099,0.231,2.024,0.697,2.775c0.464,0.751,1.195,1.126,2.193,1.126c0.766,0,1.373-0.232,1.82-0.699
			c0.448-0.467,0.757-1.104,0.928-1.915h1.795c-0.205,1.456-0.718,2.521-1.538,3.194s-1.87,1.01-3.147,1.01
			c-1.436,0-2.581-0.524-3.436-1.574c-0.854-1.049-1.281-2.359-1.281-3.932c0-1.928,0.468-3.429,1.404-4.502
			s2.129-1.609,3.578-1.609C314.374,61.507,315.381,61.808,316.157,62.41z"/>
		<path d="M318.837,57.744h1.773v8.746l4.733-4.665h2.357l-4.221,4.083l4.458,6.898h-2.358l-3.454-5.588l-1.516,1.467v4.121h-1.773
			V57.744z"/>
	</g>
	<g>
	</g>
	<g>
	</g>
	<g>
	</g>
	<g>
	</g>
	<g>
	</g>
	<g>
	</g>
</g>
</svg>
